<svg width="24" height="24" viewBox="0 0 24 24" fill="none" xmlns="http://www.w3.org/2000/svg">
<path d="M14.825 22C13.3564 22 11.9685 21.7292 10.6611 21.1875C9.35369 20.6458 8.20358 19.9133 7.21075 18.9898C6.21792 18.0663 5.43458 16.9861 4.86075 15.7492C4.28692 14.5122 4 13.199 4 11.8096C4 10.4032 4.2875 9.07918 4.8625 7.83751C5.4375 6.59585 6.22083 5.51251 7.2125 4.58751C8.20417 3.66251 9.35369 2.92918 10.6611 2.38751C11.9685 1.84585 13.3564 1.57501 14.825 1.57501C15.6083 1.57501 16.3417 1.65835 17.025 1.82501C17.7083 1.99168 18.3667 2.21668 19 2.50001C17.5 3.56668 16.2833 4.90001 15.35 6.50001C14.4167 8.10001 13.95 9.86251 13.95 11.7875C13.95 13.7125 14.4167 15.4792 15.35 17.0875C16.2833 18.6958 17.5 20.025 19 21.075C18.3667 21.3583 17.7083 21.5833 17.025 21.75C16.3417 21.9167 15.6083 22 14.825 22ZM14.825 20.5H15.4855C15.6952 20.5 15.8667 20.4917 16 20.475C14.9 19.2417 14.0333 17.8917 13.4 16.425C12.7667 14.9583 12.45 13.4167 12.45 11.8C12.45 10.1833 12.7667 8.64168 13.4 7.17501C14.0333 5.70835 14.9 4.35001 16 3.10001C15.8667 3.08335 15.6952 3.07501 15.4855 3.07501H14.825C12.275 3.07501 10.0833 3.9247 8.25 5.62406C6.41667 7.32345 5.5 9.38178 5.5 11.7991C5.5 14.2164 6.41667 16.2708 8.25 17.9625C10.0833 19.6542 12.275 20.5 14.825 20.5Z" fill="black"/>
</svg>
