<svg width="9" height="13" viewBox="0 0 9 13" fill="none" xmlns="http://www.w3.org/2000/svg">
<path d="M3.38672 5.73828C3.69922 6.03125 4.07031 6.17773 4.5 6.17773C4.92969 6.17773 5.29102 6.03125 5.58398 5.73828C5.89648 5.42578 6.05273 5.05469 6.05273 4.625C6.05273 4.19531 5.89648 3.83398 5.58398 3.54102C5.29102 3.22852 4.92969 3.07227 4.5 3.07227C4.07031 3.07227 3.69922 3.22852 3.38672 3.54102C3.09375 3.83398 2.94727 4.19531 2.94727 4.625C2.94727 5.05469 3.09375 5.42578 3.38672 5.73828ZM1.39453 1.54883C2.25391 0.689453 3.28906 0.259766 4.5 0.259766C5.71094 0.259766 6.73633 0.689453 7.57617 1.54883C8.43555 2.38867 8.86523 3.41406 8.86523 4.625C8.86523 5.23047 8.70898 5.92383 8.39648 6.70508C8.10352 7.48633 7.74219 8.21875 7.3125 8.90234C6.88281 9.58594 6.45312 10.2305 6.02344 10.8359C5.61328 11.4219 5.26172 11.8906 4.96875 12.2422L4.5 12.7402C4.38281 12.6035 4.22656 12.4277 4.03125 12.2129C3.83594 11.9785 3.48438 11.5293 2.97656 10.8652C2.46875 10.1816 2.01953 9.52734 1.62891 8.90234C1.25781 8.25781 0.916016 7.53516 0.603516 6.73438C0.291016 5.93359 0.134766 5.23047 0.134766 4.625C0.134766 3.41406 0.554688 2.38867 1.39453 1.54883Z" fill="#C50000"/>
</svg>
