<svg width="28" height="28" viewBox="0 0 28 28" fill="none" xmlns="http://www.w3.org/2000/svg">
<path d="M9.91667 24.5C9.43542 24.5 9.02344 24.3286 8.68073 23.9859C8.33802 23.6432 8.16667 23.2313 8.16667 22.75V9.91667C8.16667 9.43542 8.33802 9.02344 8.68073 8.68073C9.02344 8.33802 9.43542 8.16667 9.91667 8.16667H22.75C23.2313 8.16667 23.6432 8.33802 23.9859 8.68073C24.3286 9.02344 24.5 9.43542 24.5 9.91667V22.75C24.5 23.2313 24.3286 23.6432 23.9859 23.9859C23.6432 24.3286 23.2313 24.5 22.75 24.5H9.91667ZM9.91667 13.0083H22.75V9.91667H9.91667V13.0083ZM14.7583 17.9083H17.9083V14.7583H14.7583V17.9083ZM14.7583 22.75H17.9083V19.6583H14.7583V22.75ZM9.91667 17.9083H13.0083V14.7583H9.91667V17.9083ZM19.6583 17.9083H22.75V14.7583H19.6583V17.9083ZM9.91667 22.75H13.0083V19.6583H9.91667V22.75ZM19.6583 22.75H22.75V19.6583H19.6583V22.75ZM5.25 19.8333C4.76875 19.8333 4.35677 19.662 4.01406 19.3193C3.67135 18.9766 3.5 18.5646 3.5 18.0833V5.25C3.5 4.76875 3.67135 4.35677 4.01406 4.01406C4.35677 3.67135 4.76875 3.5 5.25 3.5H18.0833C18.5646 3.5 18.9766 3.67135 19.3193 4.01406C19.662 4.35677 19.8333 4.76875 19.8333 5.25V7.29167H18.0833V5.25H5.25V18.0833H7.29167V19.8333H5.25Z" fill="black"/>
</svg>
