<svg width="24" height="24" viewBox="0 0 24 24" fill="none" xmlns="http://www.w3.org/2000/svg">
<path fill-rule="evenodd" clip-rule="evenodd" d="M5 3H18.1716L16.1716 5H5L5 16.1716L3 18.1716V5C3 3.89543 3.89543 3 5 3ZM19 19H7.82843L5.82843 21H19C20.1046 21 21 20.1046 21 19V5.82843L19 7.82843V19ZM15 6C15.0555 6 15.1105 6.00226 15.1649 6.0067L13.0067 8.16487C13.0023 8.1105 13 8.05552 13 8C13 6.89543 13.8954 6 15 6ZM15.9325 17H9.82843L13.7402 13.0882L16.3166 16.1799C16.588 16.5056 16.3564 17 15.9325 17Z" fill="black"/>
<path fill-rule="evenodd" clip-rule="evenodd" d="M21.7071 2.29289C22.0976 2.68342 22.0976 3.31658 21.7071 3.70711L3.70711 21.7071C3.31658 22.0976 2.68342 22.0976 2.29289 21.7071C1.90237 21.3166 1.90237 20.6834 2.29289 20.2929L20.2929 2.29289C20.6834 1.90237 21.3166 1.90237 21.7071 2.29289Z" fill="black"/>
</svg>
