<svg width="24" height="24" viewBox="0 0 24 24" fill="none" xmlns="http://www.w3.org/2000/svg">
<path fill-rule="evenodd" clip-rule="evenodd" d="M19 5H5L5 19H19V5ZM5 3C3.89543 3 3 3.89543 3 5V19C3 20.1046 3.89543 21 5 21H19C20.1046 21 21 20.1046 21 19V5C21 3.89543 20.1046 3 19 3H5Z" fill="black"/>
<path fill-rule="evenodd" clip-rule="evenodd" d="M15 10C16.1046 10 17 9.10457 17 8C17 6.89543 16.1046 6 15 6C13.8955 6 13 6.89543 13 8C13 9.10457 13.8955 10 15 10ZM12.3841 11.4609C12.1842 11.2211 11.8158 11.2211 11.6159 11.4609L7.68343 16.1799C7.41205 16.5056 7.64363 17 8.06755 17H15.9325C16.3564 17 16.588 16.5056 16.3166 16.1799L12.3841 11.4609Z" fill="black"/>
</svg>
