<svg width="24" height="24" viewBox="0 0 24 24" fill="none" xmlns="http://www.w3.org/2000/svg">
<path fill-rule="evenodd" clip-rule="evenodd" d="M2 8C2 6.34315 3.34315 5 5 5H13C14.6569 5 16 6.34315 16 8V16C16 17.6569 14.6569 19 13 19H5C3.34315 19 2 17.6569 2 16V8ZM5 7C4.44772 7 4 7.44772 4 8V16C4 16.5523 4.44772 17 5 17H13C13.5523 17 14 16.5523 14 16V8C14 7.44772 13.5523 7 13 7H5Z" fill="#0D0D0D"/>
<path fill-rule="evenodd" clip-rule="evenodd" d="M21.446 7.10726C21.7862 7.27314 22 7.60524 22 7.96774V16.0323C22 16.3948 21.7862 16.7269 21.446 16.8927C21.1059 17.0586 20.6964 17.0304 20.3851 16.8197L14.4277 12.7875C14.1593 12.6058 14 12.3125 14 12C14 11.6875 14.1593 11.3942 14.4277 11.2125L20.3851 7.18026C20.6964 6.96956 21.1059 6.94139 21.446 7.10726ZM16.7783 12L19.9574 14.1518V9.84825L16.7783 12Z" fill="#0D0D0D"/>
</svg>
