<svg width="24" height="24" viewBox="0 0 24 24" fill="none" xmlns="http://www.w3.org/2000/svg">
<g clip-path="url(#clip0_994_27)">
<path fill-rule="evenodd" clip-rule="evenodd" d="M0 3C0 1.34314 1.34315 0 3 0H21C22.6569 0 24 1.34315 24 3V21C24 22.6569 22.6569 24 21 24H3C1.34314 24 0 22.6569 0 21V3ZM3 2C2.44771 2 2 2.44772 2 3V21C2 21.5523 2.44772 22 3 22H21C21.5523 22 22 21.5523 22 21V3C22 2.44771 21.5523 2 21 2H3Z" fill="#0D0D0D"/>
<path fill-rule="evenodd" clip-rule="evenodd" d="M7 7C5.34315 7 4 8.34315 4 10V14C4 15.6569 5.34315 17 7 17H11C12.6569 17 14 15.6569 14 14V13.0172L18.587 15.8558C18.8594 16.0244 19.2176 16.0469 19.5153 15.9142C19.8129 15.7815 20 15.5158 20 15.2258V8.7742C20 8.48419 19.8129 8.21851 19.5153 8.08581C19.2176 7.95311 18.8594 7.97565 18.587 8.14421L14 10.9828V10C14 8.34315 12.6569 7 11 7H7Z" fill="#0D0D0D"/>
</g>
<defs>
<clipPath id="clip0_994_27">
<rect width="24" height="24" fill="white"/>
</clipPath>
</defs>
</svg>
