<svg width="24" height="24" viewBox="0 0 24 24" fill="none" xmlns="http://www.w3.org/2000/svg">
<path fill-rule="evenodd" clip-rule="evenodd" d="M15 0C16.7611 0 18.404 0.505817 19.7915 1.3801L18.3302 2.84138C17.3399 2.30474 16.2055 2 15 2C11.134 2 8 5.13401 8 9C8 10.2055 8.30474 11.3399 8.84138 12.3302L7.3801 13.7915C6.50582 12.404 6 10.7611 6 9C6 4.02944 10.0294 0 15 0ZM21.1586 5.66981L22.6199 4.20852C23.4942 5.59597 24 7.23892 24 9C24 13.9706 19.9706 18 15 18C13.2389 18 11.596 17.4942 10.2085 16.6199L11.6698 15.1586C12.6601 15.6953 13.7945 16 15 16C18.866 16 22 12.866 22 9C22 7.79448 21.6953 6.66014 21.1586 5.66981ZM4.97727 9.09851C4.97727 11.1157 5.57909 12.9923 6.61298 14.5586L3.36136 17.8102C2.49879 16.436 2 14.8104 2 13.0682C2 10.1922 3.35932 7.63363 5.47054 6C5.15043 6.97493 4.97727 8.01649 4.97727 9.09851ZM10.9318 22C9.18963 22 7.56395 21.5012 6.18979 20.6386L9.4414 17.387C11.0077 18.4209 12.8843 19.0227 14.9015 19.0227C15.9835 19.0227 17.0251 18.8496 18 18.5295C16.3664 20.6407 13.8078 22 10.9318 22Z" fill="#0D0D0D"/>
<path fill-rule="evenodd" clip-rule="evenodd" d="M22.7071 1.29289C23.0976 1.68342 23.0976 2.31658 22.7071 2.70711L3.70711 21.7071C3.31658 22.0976 2.68342 22.0976 2.29289 21.7071C1.90237 21.3166 1.90237 20.6834 2.29289 20.2929L21.2929 1.29289C21.6834 0.902369 22.3166 0.902369 22.7071 1.29289Z" fill="#0D0D0D"/>
</svg>
