<svg width="24" height="24" viewBox="0 0 24 24" fill="none" xmlns="http://www.w3.org/2000/svg">
<path d="M18 18.5295C17.0251 18.8496 15.9835 19.0227 14.9015 19.0227C9.42049 19.0227 4.97727 14.5795 4.97727 9.09851C4.97727 8.01649 5.15043 6.97493 5.47054 6C3.35932 7.63363 2 10.1922 2 13.0682C2 18.0011 5.9989 22 10.9318 22C13.8078 22 16.3664 20.6407 18 18.5295Z" fill="#0D0D0D"/>
<path fill-rule="evenodd" clip-rule="evenodd" d="M24 9C24 13.9706 19.9706 18 15 18C10.0294 18 6 13.9706 6 9C6 4.02944 10.0294 0 15 0C19.9706 0 24 4.02944 24 9ZM15 16C18.866 16 22 12.866 22 9C22 5.13401 18.866 2 15 2C11.134 2 8 5.13401 8 9C8 12.866 11.134 16 15 16Z" fill="#0D0D0D"/>
</svg>
