<svg width="24" height="24" viewBox="0 0 24 24" fill="none" xmlns="http://www.w3.org/2000/svg">
<path fill-rule="evenodd" clip-rule="evenodd" d="M20 4H4V20H20V4ZM4 2C2.89543 2 2 2.89543 2 4V20C2 21.1046 2.89543 22 4 22H20C21.1046 22 22 21.1046 22 20V4C22 2.89543 21.1046 2 20 2H4Z" fill="#0D0D0D"/>
<path fill-rule="evenodd" clip-rule="evenodd" d="M17.8787 13.0064C17.7539 13.6337 17.6224 14.2951 17.4487 14.8162C17.1911 15.589 16.8704 16.3264 16.2652 16.8307C15.6259 17.3635 14.8431 17.5 14 17.5C13.1569 17.5 12.3741 17.3635 11.7348 16.8307C11.1296 16.3264 10.8089 15.589 10.5513 14.8162C10.4855 14.6187 10.4233 14.4256 10.3627 14.2373C10.0942 13.4032 9.85638 12.6645 9.46542 12.059C9.24296 11.7144 8.9959 11.4604 8.70581 11.289C8.42102 11.1207 8.04115 11 7.5 11C6.45235 11 5.63196 11.4885 5.02751 12.2065C4.40647 12.9442 4.0609 13.8755 3.9959 14.5905C3.94589 15.1406 3.45948 15.5459 2.90947 15.4959C2.35945 15.4459 1.95411 14.9595 2.00411 14.4095C2.10578 13.2911 2.6102 11.9724 3.4975 10.9185C4.40137 9.84481 5.74766 9 7.5 9C8.35886 9 9.09749 9.19733 9.72335 9.56719C10.3439 9.93392 10.7996 10.4382 11.1456 10.9742C11.695 11.825 12.0303 12.8774 12.2974 13.7156C12.3501 13.8811 12.4002 14.0382 12.4487 14.1838C12.6911 14.911 12.8704 15.1736 13.0152 15.2943C13.1259 15.3865 13.3431 15.5 14 15.5C14.6569 15.5 14.8741 15.3865 14.9848 15.2943C15.1296 15.1736 15.3089 14.911 15.5513 14.1838C15.6835 13.7873 15.7917 13.2448 15.9285 12.5588C15.9348 12.5274 15.9411 12.4956 15.9475 12.4635C16.0865 11.7673 16.2508 10.9627 16.4924 10.2107C16.7312 9.4674 17.0729 8.68346 17.6183 8.07387C18.1948 7.42934 18.9846 7 20 7C20.5523 7 21 7.44772 21 8C21 8.55228 20.5523 9 20 9C19.6154 9 19.3492 9.13869 19.1089 9.40732C18.8373 9.7109 18.6013 10.1852 18.3965 10.8225C18.1946 11.451 18.0497 12.1492 17.9088 12.855C17.8988 12.9052 17.8888 12.9557 17.8787 13.0064Z" fill="#0D0D0D"/>
</svg>
