<svg width="20" height="23" viewBox="0 0 20 23" xmlns="http://www.w3.org/2000/svg">
<path fill-rule="evenodd" clip-rule="evenodd" d="M12.5328 15.6181C14.4499 13.5486 16 11.0765 16 8.68182C16 7.02798 15.3572 5.45067 14.2268 4.29463C13.098 3.14012 11.5766 2.5 10 2.5C8.42339 2.5 6.90202 3.14012 5.77316 4.29463C4.64281 5.45067 4 7.02798 4 8.68182C4 11.0765 5.55014 13.5486 7.46724 15.6181C8.38187 16.6055 9.30289 17.4185 10 17.9869C10.6971 17.4185 11.6181 16.6055 12.5328 15.6181ZM10 20.5C10 20.5 18 15.0455 18 8.68182C18 6.51186 17.1571 4.43079 15.6569 2.8964C14.1566 1.36201 12.1217 0.5 10 0.5C7.87827 0.5 5.84344 1.36201 4.34315 2.8964C2.84285 4.43079 2 6.51186 2 8.68182C2 15.0455 10 20.5 10 20.5Z" />
<path fill-rule="evenodd" clip-rule="evenodd" d="M10 7.5C9.44772 7.5 9 7.94772 9 8.5C9 9.05228 9.44772 9.5 10 9.5C10.5523 9.5 11 9.05228 11 8.5C11 7.94772 10.5523 7.5 10 7.5ZM7 8.5C7 6.84315 8.34315 5.5 10 5.5C11.6569 5.5 13 6.84315 13 8.5C13 10.1569 11.6569 11.5 10 11.5C8.34315 11.5 7 10.1569 7 8.5Z"/>
</svg>
